Coordinates
version=1
nRows=4
nColumns=124
inDegrees=yes

Units are S.I. units (second, meters, Newtons, ...)
If the header above contains a line with 'inDegrees', this indicates whether rotational values are in degrees (yes) or radians (no).

endheader 
time	pelvis_tilt	pelvis_list	pelvis_rotation	pelvis_tx	pelvis_ty	pelvis_tz	hip_flexion_l	hip_adduction_l	hip_rotation_l	hip_flexion_r	hip_adduction_r	hip_rotation_r	knee_angle_l	knee_angle_r	ankle_angle_l	ankle_angle_r	subtalar_angle_l	subtalar_angle_r	mtp_angle_l	mtp_angle_r	lumbar_extension	lumbar_bending	lumbar_rotation	arm_flex_l	arm_add_l	arm_rot_l	arm_flex_r	arm_add_r	arm_rot_r	elbow_flex_l	elbow_flex_r	glut_med1_l/activation	glut_med2_l/activation	glut_med3_l/activation	glut_min1_l/activation	glut_min2_l/activation	glut_min3_l/activation	semimem_l/activation	semiten_l/activation	bifemlh_l/activation	bifemsh_l/activation	sar_l/activation	add_long_l/activation	add_brev_l/activation	add_mag1_l/activation	add_mag2_l/activation	add_mag3_l/activation	tfl_l/activation	pect_l/activation	grac_l/activation	glut_max1_l/activation	glut_max2_l/activation	glut_max3_l/activation	iliacus_l/activation	psoas_l/activation	quad_fem_l/activation	gem_l/activation	peri_l/activation	rect_fem_l/activation	vas_med_l/activation	vas_int_l/activation	vas_lat_l/activation	med_gas_l/activation	lat_gas_l/activation	soleus_l/activation	tib_post_l/activation	flex_dig_l/activation	flex_hal_l/activation	tib_ant_l/activation	per_brev_l/activation	per_long_l/activation	per_tert_l/activation	ext_dig_l/activation	ext_hal_l/activation	ercspn_l/activation	intobl_l/activation	extobl_l/activation	glut_med1_r/activation	glut_med2_r/activation	glut_med3_r/activation	glut_min1_r/activation	glut_min2_r/activation	glut_min3_r/activation	semimem_r/activation	semiten_r/activation	bifemlh_r/activation	bifemsh_r/activation	sar_r/activation	add_long_r/activation	add_brev_r/activation	add_mag1_r/activation	add_mag2_r/activation	add_mag3_r/activation	tfl_r/activation	pect_r/activation	grac_r/activation	glut_max1_r/activation	glut_max2_r/activation	glut_max3_r/activation	iliacus_r/activation	psoas_r/activation	quad_fem_r/activation	gem_r/activation	peri_r/activation	rect_fem_r/activation	vas_med_r/activation	vas_int_r/activation	vas_lat_r/activation	med_gas_r/activation	lat_gas_r/activation	soleus_r/activation	tib_post_r/activation	flex_dig_r/activation	flex_hal_r/activation	tib_ant_r/activation	per_brev_r/activation	per_long_r/activation	per_tert_r/activation	ext_dig_r/activation	ext_hal_r/activation	ercspn_r/activation	intobl_r/activation	extobl_r/activation	
          0.78291409	          2.82836519	          0.81488442	          7.99213240	          0.56812003	          1.00588076	         -0.01329213	        -17.42376613	          1.45510284	         16.06487161	         17.39520938	          1.53144571	         -4.48227810	         -6.29396649	        -17.35994752	         10.98245460	          6.95047794	        -11.95661916	        -10.12405550	         15.52840485	          0.09109400	         -5.44529752	         -2.00364658	          2.74618136	         -0.22621101	        -13.46342029	         19.10495715	         14.79876997	        -13.46346520	         19.13535522	         15.49879650	         22.42115514	          0.05000232	          0.05882706	          0.05000303	          0.05000565	          0.05000384	          0.05000711	          0.05001286	          0.05000610	          0.05000379	          0.05000292	          0.05000801	          0.49137530	          0.41823032	          0.05971359	          0.05002878	          0.05002763	          0.07123567	          0.17217427	          0.12652100	          0.05001607	          0.05001560	          0.05002293	          0.30403746	          0.30369236	          0.11570750	          0.05001403	          0.05170653	          0.17682509	          0.14025222	          0.15685063	          0.05000993	          0.43606894	          0.32506581	          0.99991514	          0.57050945	          0.32028060	          0.40504390	          0.05000204	          0.05000848	          0.12735699	          0.05000195	          0.05000047	          0.05000135	          0.16813604	          0.05000011	          0.05000042	          0.36895391	          0.53262845	          0.21180971	          0.12208422	          0.20592478	          0.07543596	          0.05000120	          0.05000200	          0.05000526	          0.05000275	          0.07555142	          0.06088486	          0.05000173	          0.05000954	          0.05001039	          0.05001033	          0.24510531	          0.05000541	          0.05000240	          0.06945926	          0.10368646	          0.05001546	          0.06248578	          0.05378966	          0.08180062	          0.17925215	          0.37344990	          0.30619702	          0.37767819	          0.42354337	          0.29035756	          0.05000070	          0.05000217	          0.05000016	          0.32078487	          0.10608839	          0.05000894	          0.73854819	          0.05000126	          0.05000075	          0.16298391	          0.55476023	          0.37320361	          0.05249944	          0.11631746	          0.05000015	
          0.81423066	          2.82788939	          1.15228302	          8.13669098	          0.59108992	          1.00821112	         -0.01455670	        -17.09990670	          2.19422543	         15.09463468	         16.22611402	          1.46315727	         -3.80117036	         -9.25437752	        -17.83235302	          9.17756206	          7.41468824	        -12.24918423	        -11.38905224	         17.51526580	          0.14506761	         -5.35748039	         -1.17161484	          2.64683433	         -0.33962538	        -13.48048795	         17.52201742	          9.51153275	        -13.46354346	         19.34892558	         25.26787138	         19.77722059	          0.05000193	          0.05000105	          0.05000226	          0.05000478	          0.05000354	          0.05000529	          0.05001772	          0.05003203	          0.05000681	          0.05000428	          0.05000733	          0.48396135	          0.54693568	          0.07719693	          0.05003185	          0.05003414	          0.05000356	          0.21500901	          0.13063001	          0.05001416	          0.05001346	          0.05002128	          0.24727605	          0.23748476	          0.07602730	          0.05000766	          0.05000196	          0.11618476	          0.15376676	          0.16743315	          0.05000924	          0.31926634	          0.24555298	          0.87575444	          0.57449080	          0.33032872	          0.40242503	          0.05000248	          0.05000826	          0.11884753	          0.05000221	          0.05000053	          0.05000154	          0.16633325	          0.05000015	          0.05197183	          0.45218227	          0.61918598	          0.25373089	          0.15732026	          0.26234150	          0.09130901	          0.05000144	          0.05000201	          0.05000569	          0.05000211	          0.05328355	          0.05000037	          0.05000109	          0.05000887	          0.05001011	          0.05001110	          0.26604050	          0.05000438	          0.05000203	          0.08649695	          0.12729781	          0.05001870	          0.05000094	          0.05000108	          0.05374894	          0.14326850	          0.38490240	          0.32165717	          0.37331449	          0.42119764	          0.28685979	          0.05000143	          0.05000424	          0.05000047	          0.36817254	          0.13002966	          0.05159839	          0.60930311	          0.05000198	          0.05000078	          0.10709214	          0.43586254	          0.27854698	          0.05000040	          0.09395546	          0.05000015	
          0.84554722	          2.82968564	          1.54911485	          8.12301102	          0.61359832	          1.01178786	         -0.01546446	        -16.69441574	          2.99182290	         13.93603052	         14.74773272	          1.34663563	         -3.09787437	        -12.15243628	        -17.74343781	          6.76204261	          8.04171217	        -12.64978714	        -12.02671774	         19.13061903	          0.27697007	         -5.24848602	         -0.51319264	          2.48722513	         -1.26980946	        -13.47525988	         15.53967536	          3.54469034	        -13.46342252	         19.29330410	         36.98950196	         18.59255656	          0.05000185	          0.05000117	          0.05000189	          0.05000488	          0.05000325	          0.05000473	          0.05001848	          0.05776736	          0.05000782	          0.05000491	          0.05000697	          0.48838261	          0.57587047	          0.06925753	          0.05003047	          0.05003411	          0.05000456	          0.23697288	          0.13025161	          0.05001328	          0.05001248	          0.05001921	          0.22953329	          0.18831171	          0.05000225	          0.05000562	          0.05000204	          0.07634097	          0.15176394	          0.16346705	          0.05000840	          0.24600072	          0.20542256	          0.70912845	          0.57283486	          0.33586747	          0.39627100	          0.05000283	          0.05000574	          0.11195933	          0.05000204	          0.05000050	          0.05000148	          0.15393606	          0.05000017	          0.08009869	          0.53880393	          0.64799032	          0.24704610	          0.22650417	          0.30789688	          0.09525074	          0.05000224	          0.05000233	          0.05000629	          0.05000164	          0.05001817	          0.05000044	          0.05000111	          0.05000876	          0.05001066	          0.05001522	          0.27194057	          0.05000394	          0.05000193	          0.08047900	          0.12525537	          0.05002360	          0.05000099	          0.05000105	          0.05000207	          0.09414123	          0.38099997	          0.34308790	          0.36171270	          0.40630584	          0.27885086	          0.05000100	          0.05000295	          0.05000036	          0.40065397	          0.13998979	          0.05955504	          0.52045422	          0.05000173	          0.05000078	          0.07037334	          0.35124889	          0.24354359	          0.05000059	          0.07801196	          0.05000015	
          0.87686378	          2.83263644	          2.05660544	          7.92678698	          0.63566130	          1.01592146	         -0.01603762	        -16.39294728	          3.85379576	         12.64952728	         13.05573865	          1.08986577	         -2.42344598	        -14.65300272	        -17.24335536	          4.08211689	          8.67000388	        -13.00768185	        -12.09877185	         19.93249753	          0.42864575	         -5.12265072	         -0.06056486	          2.25990153	         -2.54776778	        -13.46389839	         14.16617481	         -2.74669296	        -13.46354519	         19.32606221	         49.61338554	         18.39539731	          0.05000178	          0.05000101	          0.05000163	          0.05000479	          0.05000299	          0.05000420	          0.05002187	          0.08541064	          0.05001158	          0.05000554	          0.05000600	          0.51130142	          0.61440015	          0.06378664	          0.05002973	          0.05003989	          0.05000411	          0.24725946	          0.12272216	          0.05001281	          0.05001222	          0.05001931	          0.21250262	          0.15290705	          0.05000180	          0.05000420	          0.05000168	          0.05016209	          0.15259108	          0.16246668	          0.05000816	          0.21092212	          0.16882157	          0.56677084	          0.56766894	          0.33654851	          0.38601316	          0.05000330	          0.05000782	          0.10744451	          0.05000211	          0.05000052	          0.05000154	          0.13704307	          0.05000019	          0.10985592	          0.59098784	          0.65164944	          0.25222024	          0.26946472	          0.33965262	          0.09893012	          0.05000272	          0.05000284	          0.05000819	          0.05000113	          0.05000711	          0.05000037	          0.05000107	          0.05000873	          0.05001166	          0.05002956	          0.29688697	          0.05000338	          0.05000178	          0.08599422	          0.14203892	          0.05003229	          0.05000071	          0.05000075	          0.05000178	          0.06186119	          0.36327979	          0.37055589	          0.35446617	          0.39194818	          0.27509327	          0.05000088	          0.05000256	          0.05000044	          0.42143099	          0.14765811	          0.07008954	          0.44572147	          0.05000184	          0.05000083	          0.05003325	          0.28684891	          0.21098141	          0.05000048	          0.06495102	          0.05000015	
